# xmcd
#
# Track frame offsets:
#	150
#	19140
#	38120
#	55912
#	71175
#	89625
#	107175
#	127200
#	143532
#	158300
#	178762
#	197362
#
# Disc length: 2945 seconds
#
# Revision: 4
# Processed by: cddbd v1.5PL3 Copyright (c) Steve Scherf et al.
# Submitted via: CDex 1.50Beta5
#
DISCID=a50b7f0c
DTITLE=deeps - Lovely!
DYEAR=1998
DGENRE=Pop
TTITLE0=Sunshine Love
TTITLE1=ハピネス
TTITLE2=Love is Real
TTITLE3=真夏のDistance
TTITLE4=LOVING YOU
TTITLE5=Jealousy
TTITLE6=Memories
TTITLE7=リゾート
TTITLE8=プレミア
TTITLE9=バージンラブ
TTITLE10=Good Night,My Broken Heart
TTITLE11=Love is Real
EXTD=
EXTT0=
EXTT1=
EXTT2=
EXTT3=
EXTT4=
EXTT5=
EXTT6=
EXTT7=
EXTT8=
EXTT9=
EXTT10=
EXTT11=
PLAYORDER=
